<?xml version="1.0" encoding="utf-8"?>
<!-- Generator: Adobe Illustrator 21.1.0, SVG Export Plug-In . SVG Version: 6.00 Build 0)  -->
<svg version="1.1" id="Layer_1" xmlns="http://www.w3.org/2000/svg" xmlns:xlink="http://www.w3.org/1999/xlink" x="0px" y="0px"
	 viewBox="250 0 500 500" style="enable-background:new 0 0 500 500;" xml:space="preserve">
<style type="text/css">
	.st0{fill:#FFFFFF;}
</style>

<g>
	<g>
		<path class="st0" d="M453.8,148c-69,0-138,0-207,0c0-44.8,0-89.5,0-134.3c69,0,138,0,207,0C453.8,58.5,453.8,103.3,453.8,148z
			 M368.1,65.5c-0.7,0.1-1.2,0.1-1.7,0.3c-19.9,6.6-39.8,13.1-59.7,19.8c-1.2,0.4-2.5,1.4-3,2.5c-3.1,7.2-2.6,14.4,0.4,21.4
			c1.3,3,3.4,4.2,6.9,3.4c22.3-4.9,44.6-9.6,66.9-14.5c0.3-0.1,0.5-0.4,0.8-0.7C372.4,88,368.2,77.6,368.1,65.5z M424.3,18
			c-12.8,5.3-23.9,12.8-25.9,27.8c-2.8,20.3-0.6,39.9,9.4,58.5c5.8,10.7,13.5,12,24.9,8.5c1-0.3,1.8-1.1,2-1.2
			c-2.6-2.2-5.6-4-7.5-6.5c-2.4-3.1-4.1-6.8-5.7-10.5c-5.5-13.1-7-27-6.6-41.1C415.4,41,417.1,28.8,424.3,18z M274.1,92
			c-0.4-0.1-0.8-0.3-1.3-0.4c1.1-4.5,1.9-9.2,3.6-13.5c1.2-3.1,4.2-3.2,6.3-0.5c1.5,1.9,2.8,4.2,3.5,6.5c1.4,4.3,2.2,8.7,3.4,13
			c0.2,0.8,1.1,1.4,1.6,2.1c0.5-0.8,1.4-1.7,1.4-2.5c-0.1-2.2-0.5-4.5-0.9-6.7c-1.7-8.6-3.8-17.1-8.9-24.4c-1.1-1.5-3.1-2.9-4.9-3.3
			c-2.5-0.4-4.5,1.3-5.4,3.8c-0.9,2.6-1.9,5.2-2.5,7.8c-2.7,11.3-2,22.6-0.5,33.9c1.3,10.1,3.4,20.2,8.8,29.2c1.5,2.5,3.3,6,6.6,5
			c2.3-0.7,3.8-3.8,5.6-5.9c0.4-0.4,0.5-1.1,0.6-1.7c1-6.6,1.9-13.3,2.8-20c0.1-0.5-0.3-1.1-0.4-1.6c-0.3-0.1-0.6-0.1-0.9-0.2
			c-0.4,1-0.9,2-1,3c-0.7,4.5-1.1,9.2-2.1,13.6c-0.4,1.7-2.2,4.4-3.3,4.4c-1.9-0.1-4.2-1.6-5.5-3.2c-4.3-5.5-7.9-24.2-6.5-31.6
			c1.1,9.1,1.8,18.1,5.1,26.5c0.4,0,0.9,0.1,1.3,0.1c0.7-3,1.5-5.9,2.2-8.9c-0.5,0.1-1.1,0.3-1.6,0.4c-1.1-1.4-3-2.7-3-4.1
			c-0.1-2.8,0.3-5.8,1.3-8.3c1.9-4.7-0.1-11.4-4.7-14.3C274.5,90.9,274.3,91.5,274.1,92z M270.2,64.9c-0.4-0.3-0.8-0.5-1.1-0.8
			c-2.5,1.3-5.4,2.1-7.3,3.9c-4.9,4.5-7.9,10.4-8.9,16.9c-2.8,18.7,1.2,36.2,9.9,52.7c1.3,2.4,3.5,4.6,5.7,6.3c1.3,1,3.4,1.5,5,1.3
			c3-0.3,5.9-1.4,8.3-2c-1.7-2.2-3.8-4.4-5.2-7c-4.8-8.5-6.8-17.9-7.9-27.5c-0.9-7.5-1.4-15.2-1.1-22.7
			C267.8,79,269.2,71.9,270.2,64.9z M448.2,79.6c0.1-0.4,0.4-1.5,0.3-2.6c-0.7-10.3-1-20.7-2.3-30.9c-1-7.6-3.2-15.2-8.1-21.5
			c-1.8-2.3-3.6-4.7-7-4.2c-3.4,0.6-4.7,3.3-5.4,5c3.1,3.6,6.3,6.3,8.1,9.7c2.4,4.6,4.6,9.6,5.5,14.6c1.9,10.9,3,21.9,4.4,32.9
			c-0.4-0.2-0.8-0.5-1.2-0.7C444.2,81.2,445.9,80.5,448.2,79.6z M446.9,98.5c-0.4-0.4-0.7-0.7-1.1-1.1c-0.9,1.4-1.7,2.8-2.7,4
			c-3.2,4.3-6.9,5-10.8,1.4c-2.7-2.5-5-5.7-6.5-9c-7.8-17.9-8.9-36.8-6-55.8c0.8-5.3,2.8-10.7,5.4-15.3c3.4-6,9.5-6.1,13.3-0.3
			c3.1,4.7,5.8,10,7.4,15.3c3.8,12.6,5.3,25.6,4.2,39.6c0.5-3.4,1-6,1.1-8.7c0.5-12.1-1.1-24-5.3-35.3c-1.7-4.6-4.2-9.1-7.3-12.9
			c-4.7-5.9-10.5-5.4-14.3,1.1c-2.6,4.5-4.7,9.4-5.8,14.4c-3.8,16.6-3.3,33.3,1.6,49.6c2.1,7,5.9,13.7,9.7,20.1
			c2.4,4.1,5.5,4.4,9.2,1.5C442.2,104.8,444.4,101.4,446.9,98.5z M289.5,101.2c-0.5-2.3-0.9-4.4-1.5-6.4c-1.4-4.5-2.5-9.1-4.4-13.4
			c-0.8-1.8-3-2.9-4.5-4.4c-1.2,1.9-2.5,3.8-3.6,5.8c-0.2,0.5,0.4,1.5,0.8,2.1c1.7,2.8,3.8,5.4,5.2,8.4c1.1,2.3,1.5,5,2.1,7.5
			c1.1,0.1,2.1,0.3,3.2,0.4c-3.5,8.3-3.6,9.1-1.5,12.3c2.3-0.7,4.7-1.5,6.6-2.1c0.3-3.8,0.6-7.2,0.9-10.7
			C292,100.8,291,101,289.5,101.2z M420.7,51c-1.2,13.1,1,25.4,5.1,38.5C430.5,77.9,427.6,57.2,420.7,51z M416,115.6
			c-2.6-2.8-6.3-5.8-8.7-9.7c-7.2-11.7-10.7-24.7-11.1-38.4c-0.3-8.7,0.3-17.3,0.6-26c-1.2,5.9-2.2,11.8-2.4,17.8
			c-0.5,17.5,2.6,34.3,12.1,49.4C409.1,112.6,412.2,115.7,416,115.6z M383.4,88.9c-4.7,0.7-6.9-0.6-8.7-4.9
			c-1.9-4.5-0.9-9.6,2.8-12.5c-2-2.6-4-5.1-6-7.7c-0.5,0.2-1,0.4-1.5,0.6c-0.1,1.8-0.5,3.6-0.3,5.3c0.9,8.9,4.2,17.1,8.7,24.8
			c0.4,0.6,0.9,1.2,1.5,1.7c1.9,1.8,3.2,1.2,3.6-1.2C383.7,93.1,383.4,91,383.4,88.9z M425.2,27.6c-0.3,0.5-0.6,0.9-1,1.4
			c5.8,2.9,8.5,8.3,10.6,13.9c3.8,9.9,5.4,20.2,5.5,30.8c0.1,9.8-0.3,19.4-7.4,27.5c1.3-0.2,2.7-0.5,3.2-1.3c1.3-2.2,2.6-4.6,3.3-7
			c3.7-13.3,2.9-26.8-0.5-39.9c-1.8-7.1-5.1-13.9-8.3-20.6C429.8,30.2,427.1,29.1,425.2,27.6z M290.9,114c-4.3,0-6.2,1.2-6.3,5.2
			c-0.1,2.9-1,5.9-2.1,8.6c-1.1,2.6,0,3.7,1.9,4.7c2.6,1.3,3.2-1,3.6-2.4C289.1,124.8,289.9,119.4,290.9,114z M255.6,72.8
			c-12.7,16.2-3.9,52.2,5.4,64.9C251.9,116.5,246,95.6,255.6,72.8z M389.6,85.5c-1.7-5.2-3.1-9.6-4.7-14.5c-1,0.7-3.4,1.4-3.8,2.7
			c-1.3,4.3-0.1,8.6,3.1,11.6C385.3,86.3,388,85.5,389.6,85.5z M392.8,67.4c-2.1,1.8-4.6,2.9-5,4.5c-0.9,4,0.5,7.9,3.3,11
			c0.5,0.6,1.7,1,2.4,0.8c0.5-0.2,1.1-1.5,1-2.2C394.1,77.3,393.5,73.1,392.8,67.4z M378.3,73.8c-2.8,0.7-3.9,4.6-2.4,9.2
			c1.5,4.3,3.2,5.3,6.2,4.1C380.9,82.7,379.6,78.4,378.3,73.8z M298.9,99.3c-4-0.1-6.4,5.4-4.3,11.4c1.3-0.4,2.6-0.8,3.3-0.9
			C298.2,105.8,298.5,102.6,298.9,99.3z M283.7,103.1c-4,0.9-5.8,7.2-2.7,12.4c0.7-1.3,1.6-2.2,1.7-3.2
			C283.2,109.4,283.4,106.3,283.7,103.1z M445.7,92.5c0.4-1.6,1-4,1.7-6.5c-2.1,0-3.6,0-5.2,0c-0.4,2.1-0.7,4.1-1.2,6.5
			C442.6,92.5,443.8,92.5,445.7,92.5z M437.1,101.1c3.7,1.3,5.2-0.4,6-3.4C439.3,95.6,438.3,98.4,437.1,101.1z"/>
		<path d="M368.1,65.5c0.2,12.1,4.3,22.5,10.7,32.3c-0.3,0.3-0.5,0.6-0.8,0.7c-22.3,4.8-44.6,9.6-66.9,14.5
			c-3.5,0.8-5.6-0.5-6.9-3.4c-3-7.1-3.5-14.3-0.4-21.4c0.5-1.1,1.8-2.1,3-2.5c19.9-6.7,39.8-13.2,59.7-19.8
			C366.8,65.6,367.3,65.6,368.1,65.5z M344.7,94.5c0.7,0.1,1.7,0.5,1.9,0.2c3.3-4.8,6.4-9.6,9.6-14.4c-0.2-0.2-0.5-0.3-0.7-0.5
			c-1,0.8-2,1.6-3,2.4c-1.1-0.2-2.3-0.7-3.3-0.4c-11.6,3.2-23.2,6.7-34.9,9.8c-3.7,1-4.3,2.7-3.4,5.8c1.1,4,3.5,5.8,6.7,4.9
			c7.6-1.9,15.2-3.8,22.8-5.8C341.9,96.2,343.2,95.2,344.7,94.5z M364.4,90.5c-1.8-3.8-3.4-7.2-5.2-11c-3.2,4.9-6.1,9.5-9.5,14.8
			C355.1,92.9,359.8,91.7,364.4,90.5z"/>
		<path d="M424.3,18c-7.2,10.8-9,23-9.3,35.4c-0.4,14,1.1,27.9,6.6,41.1c1.5,3.7,3.3,7.3,5.7,10.5c1.9,2.5,4.9,4.3,7.5,6.5
			c-0.2,0.1-1,0.9-2,1.2c-11.5,3.5-19.2,2.2-24.9-8.5c-10-18.5-12.1-38.2-9.4-58.5C400.5,30.8,411.5,23.3,424.3,18z M403.7,90.6
			c1.5,3.6,2.9,6.9,4.3,10.3c3.9-1.2,7.4-2.3,11.2-3.5c-1.1-3.3-2-6.3-3-9.6C412.1,88.7,408.3,89.6,403.7,90.6z M400.3,67.6
			c3.8-1.2,6.9-2,9.9-3.1c0.8-0.3,1.7-1.5,1.8-2.3c0.1-2.8-0.2-5.6-0.3-8.7c-4.1,1.3-7.9,2.5-11.8,3.8
			C399.9,60.7,400.1,63.8,400.3,67.6z M400.6,50.8c10.7-2.6,13.1-5.5,11.7-14.3C401,39.6,400.4,40.3,400.6,50.8z M403.3,83.9
			c3.9-1,7.3-1.8,10.8-2.7c-0.6-3.1-1.2-5.7-1.8-8.6c-3.7,1-7.2,1.9-10.8,2.8C402.1,78.2,402.6,80.7,403.3,83.9z M427.5,110.7
			c-4.6-7.5-6-7.8-13.7-3.1C417,113.6,421.8,113.4,427.5,110.7z M415.4,24.6c-3.3,2.6-6.2,4.8-9.9,7.6
			C412.5,32.2,414.2,30.8,415.4,24.6z"/>
		<path d="M274.1,92c0.2-0.5,0.4-1.1,0.6-1.6c4.6,2.8,6.6,9.6,4.7,14.3c-1,2.6-1.4,5.6-1.3,8.3c0.1,1.4,2,2.8,3,4.1
			c0.5-0.1,1.1-0.3,1.6-0.4c-0.7,3-1.5,5.9-2.2,8.9c-0.4,0-0.9-0.1-1.3-0.1c-3.2-8.4-4-17.4-5.1-26.5c-1.4,7.4,2.2,26.1,6.5,31.6
			c1.2,1.6,3.6,3,5.5,3.2c1,0.1,2.9-2.7,3.3-4.4c1-4.5,1.4-9.1,2.1-13.6c0.2-1,0.7-2,1-3c0.3,0.1,0.6,0.1,0.9,0.2
			c0.2,0.5,0.5,1.1,0.4,1.6c-0.9,6.7-1.8,13.3-2.8,20c-0.1,0.6-0.3,1.3-0.6,1.7c-1.8,2.1-3.3,5.2-5.6,5.9c-3.3,1-5.1-2.4-6.6-5
			c-5.4-9-7.5-19-8.8-29.2C268,96.6,267.3,85.2,270,74c0.6-2.6,1.6-5.2,2.5-7.8c0.9-2.5,2.9-4.2,5.4-3.8c1.8,0.3,3.8,1.7,4.9,3.3
			c5.1,7.3,7.3,15.8,8.9,24.4c0.4,2.2,0.8,4.4,0.9,6.7c0,0.8-0.9,1.7-1.4,2.5c-0.6-0.7-1.4-1.3-1.6-2.1c-1.2-4.3-2.1-8.7-3.4-13
			c-0.8-2.3-2-4.6-3.5-6.5c-2.1-2.7-5-2.5-6.3,0.5c-1.7,4.3-2.4,9-3.6,13.5C273.2,91.8,273.6,91.9,274.1,92z"/>
		<path d="M270.2,64.9c-0.9,7-2.4,14-2.7,21.1c-0.3,7.6,0.2,15.2,1.1,22.7c1.1,9.5,3.1,19,7.9,27.5c1.4,2.6,3.5,4.8,5.2,7
			c-2.5,0.6-5.4,1.6-8.3,2c-1.6,0.2-3.8-0.3-5-1.3c-2.2-1.8-4.4-3.9-5.7-6.3c-8.7-16.5-12.7-34-9.9-52.7c1-6.5,4-12.4,8.9-16.9
			c2-1.8,4.9-2.6,7.3-3.9C269.4,64.4,269.8,64.7,270.2,64.9z M254.5,90.7c0,3.5,0,6.7,0,10.1c3-0.6,5.8-1.2,8.9-1.8
			c-0.2-3.2-0.4-6.2-0.7-9.4C259.7,90,257.3,90.3,254.5,90.7z M265.2,116.4c-0.6-3.5-1.1-6.5-1.7-9.9c-3,0.8-5.5,1.4-8.2,2.1
			c0.6,3.2,1.2,6.2,1.8,9.4C259.9,117.5,262.3,117,265.2,116.4z M265.8,123.6c-2.3,0.7-4.4,1.3-6.7,2c1.1,2.7,2,5,3,7.3
			c2.4-0.6,4.5-1.1,6.8-1.7C267.8,128.5,266.9,126.2,265.8,123.6z M256,82.3c7.7-1,7.7-1,8.2-8.3C257.8,74.6,257.7,74.7,256,82.3z
			 M267.8,140.2c1.5,4,4.3,3.7,7.4,2.3C272.6,137.6,272.6,137.6,267.8,140.2z M265.7,102.5c0.1,0,0.2,0,0.3,0c0-6.9,0-13.8,0-20.8
			c-0.1,0-0.2,0-0.3,0C265.7,88.7,265.7,95.6,265.7,102.5z"/>
		<path d="M448.2,79.6c-2.2,0.9-4,1.6-5.7,2.4c0.4,0.2,0.8,0.5,1.2,0.7c-1.4-11-2.4-22-4.4-32.9c-0.9-5.1-3.1-10.1-5.5-14.6
			c-1.8-3.4-5-6.1-8.1-9.7c0.6-1.7,2-4.4,5.4-5c3.4-0.6,5.2,1.8,7,4.2c4.8,6.4,7.1,13.9,8.1,21.5c1.3,10.2,1.6,20.6,2.3,30.9
			C448.6,78.1,448.2,79.2,448.2,79.6z M433.4,31.3c1.4,2.3,2.7,4.3,3.9,6.4c1.5-0.8,2.6-1.3,3.9-2c-1-2.2-1.9-4.3-2.9-6.6
			C436.6,30,435.1,30.6,433.4,31.3z M441.3,49.5c1.4-0.6,2.6-1.1,3.9-1.6c-0.3-1.6-0.6-3-1-4.7c-1.7,0.6-3.1,1-4.5,1.5
			C440.4,46.4,440.8,47.8,441.3,49.5z M447,60.5c-0.3-1.8-0.5-3.2-0.8-4.7c-1.5,0.4-2.5,0.7-3.8,1.1c0.2,1.6,0.5,3,0.7,4.6
			C444.6,61.2,445.6,60.9,447,60.5z M446.9,68.8c-3.1-0.4-3.3,1.6-2.8,3.5c0.2,0.7,1.5,1.2,2.8,2.1
			C446.9,71.8,446.9,70.3,446.9,68.8z"/>
		<path d="M446.9,98.5c-2.6,2.9-4.8,6.3-7.8,8.6c-3.8,2.9-6.8,2.6-9.2-1.5c-3.8-6.4-7.6-13-9.7-20.1c-4.8-16.3-5.4-33-1.6-49.6
			c1.2-5,3.3-10,5.8-14.4c3.8-6.5,9.5-7,14.3-1.1c3.1,3.8,5.6,8.3,7.3,12.9c4.2,11.3,5.8,23.2,5.3,35.3c-0.1,2.6-0.7,5.2-1.1,8.7
			c1-14-0.4-27-4.2-39.6c-1.6-5.4-4.3-10.7-7.4-15.3c-3.8-5.7-9.9-5.6-13.3,0.3c-2.6,4.7-4.6,10-5.4,15.3c-2.9,19.1-1.8,37.9,6,55.8
			c1.4,3.3,3.8,6.5,6.5,9c3.9,3.6,7.6,2.9,10.8-1.4c1-1.3,1.8-2.7,2.7-4C446.2,97.8,446.6,98.2,446.9,98.5z"/>
		<path d="M289.5,101.2c1.5-0.2,2.4-0.4,3.5-0.6c-0.3,3.5-0.6,6.9-0.9,10.7c-2,0.6-4.3,1.4-6.6,2.1c-2.1-3.2-2-4,1.5-12.3
			c-1.1-0.1-2.1-0.3-3.2-0.4c-0.7-2.5-1-5.2-2.1-7.5c-1.4-2.9-3.5-5.6-5.2-8.4c-0.4-0.6-1-1.7-0.8-2.1c1-2,2.4-3.9,3.6-5.8
			c1.5,1.4,3.8,2.6,4.5,4.4c1.8,4.3,3,8.9,4.4,13.4C288.6,96.9,289,98.9,289.5,101.2z"/>
		<path d="M420.7,51c6.8,6.2,9.8,26.9,5.1,38.5C421.8,76.4,419.5,64.1,420.7,51z"/>
		<path d="M416,115.6c-3.8,0.1-6.9-2.9-9.4-6.9c-9.5-15.1-12.6-31.8-12.1-49.4c0.2-6,1.1-12,2.4-17.8c-0.2,8.7-0.8,17.4-0.6,26
			c0.4,13.7,3.9,26.7,11.1,38.4C409.7,109.8,413.4,112.8,416,115.6z"/>
		<path d="M383.4,88.9c0,2.1,0.2,4.2-0.1,6.3c-0.3,2.4-1.7,2.9-3.6,1.2c-0.5-0.5-1.1-1.1-1.5-1.7c-4.5-7.7-7.8-15.8-8.7-24.8
			c-0.2-1.8,0.2-3.6,0.3-5.3c0.5-0.2,1-0.4,1.5-0.6c2,2.6,4,5.1,6,7.7c-3.7,2.9-4.7,7.9-2.8,12.5C376.6,88.2,378.8,89.6,383.4,88.9z
			"/>
		<path d="M425.2,27.6c1.9,1.5,4.6,2.7,5.5,4.6c3.2,6.7,6.5,13.5,8.3,20.6c3.3,13.2,4.2,26.6,0.5,39.9c-0.7,2.5-2,4.8-3.3,7
			c-0.5,0.8-1.9,1.1-3.2,1.3c7.1-8.1,7.5-17.8,7.4-27.5c-0.1-10.6-1.7-20.9-5.5-30.8c-2.2-5.6-4.8-10.9-10.6-13.9
			C424.6,28.5,424.9,28,425.2,27.6z"/>
		<path d="M290.9,114c-1,5.5-1.8,10.8-3,16.1c-0.3,1.4-1,3.7-3.6,2.4c-2-1-3-2.1-1.9-4.7c1.1-2.7,2.1-5.7,2.1-8.6
			C284.7,115.2,286.6,114,290.9,114z"/>
		<path d="M255.6,72.8c-9.6,22.7-3.7,43.6,5.4,64.9C251.7,125.1,242.9,89.1,255.6,72.8z"/>
		<path d="M389.6,85.5c-1.6,0-4.4,0.8-5.4-0.2c-3.2-3.1-4.5-7.3-3.1-11.6c0.4-1.3,2.8-2.1,3.8-2.7C386.5,75.9,387.9,80.3,389.6,85.5
			z"/>
		<path d="M392.8,67.4c0.7,5.7,1.3,9.9,1.7,14c0.1,0.7-0.5,2.1-1,2.2c-0.7,0.2-1.9-0.2-2.4-0.8c-2.8-3.1-4.3-6.9-3.3-11
			C388.2,70.3,390.7,69.3,392.8,67.4z"/>
		<path d="M378.3,73.8c1.3,4.6,2.6,8.9,3.8,13.3c-2.9,1.3-4.7,0.3-6.2-4.1C374.4,78.4,375.6,74.5,378.3,73.8z"/>
		<path d="M298.9,99.3c-0.3,3.2-0.7,6.5-1.1,10.4c-0.6,0.2-1.9,0.6-3.3,0.9C292.5,104.7,294.8,99.2,298.9,99.3z"/>
		<path d="M283.7,103.1c-0.3,3.2-0.5,6.3-0.9,9.3c-0.1,1-1,1.9-1.7,3.2C277.9,110.3,279.7,104,283.7,103.1z"/>
		<path d="M445.7,92.5c-1.9,0-3.1,0-4.7,0c0.4-2.3,0.8-4.4,1.2-6.5c1.7,0,3.1,0,5.2,0C446.7,88.5,446.1,90.8,445.7,92.5z"/>
		<path d="M437.1,101.1c1.2-2.7,2.2-5.5,6-3.4C442.3,100.7,440.7,102.4,437.1,101.1z"/>
		<path class="st0" d="M344.7,94.5c-1.4,0.7-2.8,1.7-4.3,2c-7.6,2-15.2,3.9-22.8,5.8c-3.3,0.8-5.6-0.9-6.7-4.9
			c-0.9-3.1-0.3-4.9,3.4-5.8c11.7-3,23.3-6.6,34.9-9.8c1-0.3,2.2,0.3,3.3,0.4C349.8,86.3,347.3,90.4,344.7,94.5z"/>
		<path class="st0" d="M364.4,90.5c-4.6,1.2-9.2,2.3-14.7,3.7c3.4-5.3,6.3-9.9,9.5-14.8C361,83.3,362.6,86.7,364.4,90.5z"/>
		<path class="st0" d="M344.7,94.5c2.6-4.1,5.2-8.2,7.8-12.3c1-0.8,2-1.6,3-2.4c0.2,0.2,0.5,0.3,0.7,0.5c-3.2,4.8-6.3,9.7-9.6,14.4
			C346.4,95,345.3,94.6,344.7,94.5z"/>
		<path class="st0" d="M403.7,90.6c4.6-1,8.3-1.8,12.5-2.8c1,3.2,2,6.2,3,9.6c-3.7,1.2-7.2,2.3-11.2,3.5
			C406.6,97.4,405.2,94.2,403.7,90.6z"/>
		<path class="st0" d="M400.3,67.6c-0.2-3.7-0.3-6.9-0.5-10.3c4-1.3,7.7-2.5,11.8-3.8c0.1,3.1,0.4,5.9,0.3,8.7c0,0.8-1,2-1.8,2.3
			C407.1,65.6,404,66.4,400.3,67.6z"/>
		<path class="st0" d="M400.6,50.8c-0.2-10.4,0.3-11.1,11.7-14.3C413.7,45.3,411.3,48.2,400.6,50.8z"/>
		<path class="st0" d="M403.3,83.9c-0.7-3.2-1.2-5.7-1.8-8.5c3.6-0.9,7.1-1.8,10.8-2.8c0.6,2.9,1.1,5.5,1.8,8.6
			C410.5,82.1,407.1,82.9,403.3,83.9z"/>
		<path class="st0" d="M427.5,110.7c-5.7,2.8-10.5,2.9-13.7-3.1C421.6,102.8,422.9,103.1,427.5,110.7z"/>
		<path class="st0" d="M415.4,24.6c-1.2,6.2-2.8,7.6-9.9,7.6C409.1,29.4,412,27.2,415.4,24.6z"/>
		<path class="st0" d="M254.5,90.7c2.8-0.4,5.2-0.7,8.2-1.1c0.2,3.2,0.4,6.2,0.7,9.4c-3.1,0.6-5.9,1.2-8.9,1.8
			C254.5,97.4,254.5,94.2,254.5,90.7z"/>
		<path class="st0" d="M265.2,116.4c-2.9,0.6-5.3,1.1-8.1,1.7c-0.6-3.2-1.2-6.2-1.8-9.4c2.8-0.7,5.3-1.4,8.2-2.1
			C264,109.9,264.6,112.9,265.2,116.4z"/>
		<path class="st0" d="M265.8,123.6c1,2.6,2,4.9,3.1,7.6c-2.4,0.6-4.5,1.1-6.8,1.7c-1-2.4-1.9-4.6-3-7.3
			C261.4,124.9,263.5,124.3,265.8,123.6z"/>
		<path class="st0" d="M256,82.3c1.7-7.6,1.8-7.7,8.2-8.3C263.7,81.4,263.7,81.4,256,82.3z"/>
		<path class="st0" d="M267.8,140.2c4.7-2.5,4.8-2.5,7.4,2.3C272.1,143.8,269.3,144.2,267.8,140.2z"/>
		<path class="st0" d="M265.7,102.5c0-6.9,0-13.8,0-20.8c0.1,0,0.2,0,0.3,0c0,6.9,0,13.8,0,20.8C266,102.5,265.8,102.5,265.7,102.5z
			"/>
		<path class="st0" d="M433.4,31.3c1.7-0.7,3.1-1.4,5-2.2c1,2.3,1.9,4.4,2.9,6.6c-1.3,0.7-2.4,1.2-3.9,2
			C436.1,35.7,434.8,33.6,433.4,31.3z"/>
		<path class="st0" d="M441.3,49.5c-0.5-1.6-1-3-1.5-4.8c1.4-0.5,2.7-0.9,4.5-1.5c0.4,1.7,0.6,3.1,1,4.7
			C444,48.4,442.8,48.9,441.3,49.5z"/>
		<path class="st0" d="M447,60.5c-1.5,0.4-2.5,0.6-3.9,1c-0.2-1.6-0.5-3-0.7-4.6c1.3-0.4,2.4-0.7,3.8-1.1
			C446.5,57.3,446.8,58.7,447,60.5z"/>
		<path class="st0" d="M446.9,68.8c0,1.5,0,2.9,0,5.6c-1.3-0.9-2.7-1.4-2.8-2.1C443.6,70.4,443.8,68.4,446.9,68.8z"/>
	</g>
</g>
</svg>